<?xml version="1.0" encoding="utf-8"?>
<!-- Generator: Adobe Illustrator 16.0.0, SVG Export Plug-In . SVG Version: 6.00 Build 0)  -->
<!DOCTYPE svg PUBLIC "-//W3C//DTD SVG 1.1//EN" "http://www.w3.org/Graphics/SVG/1.1/DTD/svg11.dtd">
<svg version="1.1" id="_x38_13c2686-e70f-4fb0-bf6b-a2eb7b1db384"
	 xmlns="http://www.w3.org/2000/svg" xmlns:xlink="http://www.w3.org/1999/xlink" x="0px" y="0px" width="1121.039px"
	 height="851.801px" viewBox="0 0 1121.039 851.801" enable-background="new 0 0 1121.039 851.801" xml:space="preserve">
<title>interaction design</title>
<linearGradient id="SVGID_1_" gradientUnits="userSpaceOnUse" x1="484.8689" y1="-47.8396" x2="484.8689" y2="508.5198" gradientTransform="matrix(1 0 0 -1 -31.0801 803.8003)">
	<stop  offset="0" style="stop-color:#808080;stop-opacity:0.25"/>
	<stop  offset="0.54" style="stop-color:#808080;stop-opacity:0.12"/>
	<stop  offset="1" style="stop-color:#808080;stop-opacity:0.1"/>
</linearGradient>
<path fill="url(#SVGID_1_)" d="M814.23,759.57l-8-25.46c0,0-6.7-18.07-5.62-27.76c1.08-9.69-2.25-20.271-2.25-20.271l6.58-34.25
	c0,0,0.36-3.729,0.34-8.649c0-8.2-1.16-19.7-6.84-22.69c-9.08-4.79-27.689-45.279-31.59-45.279s-16.44-2.61-16.44-7
	c0.015-0.16,0.015-0.32,0-0.48c0,0,0-0.1,0-0.15c0-0.05-0.06-0.229-0.1-0.35l-0.06-0.17l-0.181-0.4l-0.06-0.109
	c-0.489-0.871-1.099-1.669-1.811-2.37c16.94-3.23,33.801-6.78,50.54-10.91h-0.62l0.62-0.15c-2.224-0.022-4.444-0.176-6.649-0.46
	l-0.49,0.11c-24.62-3.36-46.75-22.61-52.771-47c-6.68-27,5-55.18,4.48-83c-0.36-17.605-5.591-34.767-15.11-49.58
	c-1.279-2-2.64-3.92-4.06-5.8c18.877-9.172,26.745-31.909,17.573-50.786c-0.851-1.751-1.835-3.434-2.943-5.034
	c-0.43-0.62-0.88-1.22-1.34-1.811c9.186,15.239,6.604,34.806-6.22,47.141c10.06-18.273,3.401-41.243-14.872-51.303
	c-18.274-10.061-41.243-3.401-51.303,14.872c-0.121,0.219-0.239,0.439-0.355,0.66c-0.811-0.359-1.62-0.72-2.43-1.05
	c5.15-14.097,18.16-23.805,33.14-24.729c-0.75-0.05-1.49-0.07-2.25-0.07c-15.228,0.022-28.95,9.196-34.79,23.26
	c-11.32-4.149-23.13-5.87-34.75-2.92c-2.16,0.545-4.268,1.278-6.3,2.19l0.52-0.41c-2.883,1.217-5.543,2.907-7.87,5
	c-3.479,3.21-5.93,7.37-8.88,11.09c-3.007,3.713-6.565,6.943-10.55,9.58c0.33-0.16,0.66-0.35,1-0.52
	c-13.4,9.479-31.61,12.21-46.93,6.109c-4.301-1.72-8.45-4.07-13-4.7c-3.503-0.434-7.058,0.085-10.29,1.5
	c0.14-0.109,0.27-0.229,0.42-0.34c-4.229,1.738-7.947,4.526-10.8,8.101c-5,6.17-7.511,14-9.301,21.71
	c-1.33,5.474-2.001,11.087-2,16.72c0.07,7.22,1.69,14.189,6,19.84c6.681,8.66,15.801,11,25.32,12.561c-0.28,1-0.55,1.92-0.79,2.899
	c-11.352,44.903,14.896,90.731,59.37,103.66l1.85,3.141l0.601,0.14c4.43,7.49,9.28,15.9,13.78,24c0.239,0.43,0.47,0.86,0.71,1.28
	l-8.511,4.38l0,0c-2.229,1.149-7.77,4.16-10.84,7.12c-0.887,0.767-1.573,1.737-2,2.83c-1.3,4.359-8.22,15.68-13,18.72
	s-8.66,17.85-8.22,25.67c0.439,7.82-2.601,7-10.39,7.42c-7.791,0.42,0,11.75,0,11.75l0.199,0.76c-0.359,0.62-0.77,1.29-1.22,2
	c-2,3.07-4.63,6.471-6.55,6.29c-3.47-0.33-5.63,8.16-5.41,9.46c0.22,1.301-6.06,11.75-8.439,12.84
	c-2.381,1.091-12.551,3.17-9.74,12.91L510,693.881l-10,9.58c0,0-14.28-8.061-37.44,17c2.582-0.244,5.188,0,7.68,0.72l-0.66,0.32
	c-6.1,2.89-16.659,7.819-24.47,11l-41.59,1.29v-31c0,0-3.68-8.7-8,0l-1.09,31.319l-90.4,2.931l16.94-18l0,0l0.22-0.24
	c3.691-3.923,4.967-9.538,3.33-14.67l-70.68-222.17l0,0l-0.49-1.561c-1.418-4.481-5.292-7.744-9.95-8.38l-98.18-13.25l-0.68-0.09
	l-9.021,2.45c-4.71,1.285-7.486,6.146-6.2,10.855c0.013,0.048,0.026,0.096,0.04,0.145c2.32,8,6.131,21.06,11,37.47H126.8
	l10.39,89.68l6.33,34.5c1.62,8.8,3.51,17.547,5.67,26.24c5.21,21,15.521,65.79,15.75,91.771l-76,82.859v16.83h485.45
	c0.021,0.057,0.047,0.109,0.08,0.16h236.51c0,0-2.59-4.57,3-11.1c5.59-6.53,2.82-32.431,2.82-32.431s-3.141-4.14,0.7-13.28
	C821.34,785.69,814.23,759.57,814.23,759.57z M211.04,740.02l-12.9,0.42l-12-78.06C195.03,690.9,203.65,718.041,211.04,740.02z
	 M543.22,787.461l-8.37-17.08c1.916,0.087,3.813-0.419,5.43-1.45c5.41-3.92,8.65-13.061,8.65-13.061l14.52-17.25l1.2-1.439
	c2.94,8.21,6.4,14.689,9.17,17.819c6.92,7.841,7.79,30.471,9.92,38.74c2.13,8.271,0.471,4.79,0,9.58
	c-0.067,1.171,0.03,2.346,0.29,3.49C574.46,796.541,560.85,787.2,543.22,787.461z"/>
<polygon fill="#514E7F" points="93.83,834.98 179.18,742.47 518.18,731.56 577.36,851.64 93.83,851.64 "/>
<polygon opacity="0.2" enable-background="new    " points="93.83,834.98 179.18,742.47 518.18,731.56 577.36,851.64 93.83,851.64 
	"/>
<path fill="#514E7F" d="M535.42,827.26v3.2c0,3.445-2.794,6.239-6.24,6.239H346.96c-3.45,0,0-6.89,0-6.89l-2.061-45.13
	c-0.159-3.535,2.189-6.694,5.62-7.561c10.14-2.56,17.12,1.551,17.12,1.551l112.88-2.87c2.339-0.117,4.683-0.007,7,0.33
	c8.278,1.098,15.751,5.525,20.69,12.26l25.939,35.17C534.959,824.626,535.404,825.923,535.42,827.26z"/>
<path opacity="0.1" enable-background="new    " d="M535.42,830.461L535.42,830.461c0,3.445-2.794,6.239-6.24,6.239H346.96
	c-3.45,0,0-6.89,0-6.89s10.06-4.88,25-4l133-2.88c0,0,15.71,0.359,24.899,1.359C533.014,824.632,535.407,827.288,535.42,830.461z"/>
<polygon fill="#1BB1DC" points="483.699,783.551 369.36,783.551 372.52,818.32 504.959,816.02 "/>
<path fill="#514E7F" d="M289.79,807.97v12.07L170,824.9c0,0-27.391-1.87-30.75-18.7c-0.268-1.759-0.233-3.552,0.1-5.3
	c1.21-7.09,7.29-19.47,34.09-25.189l33-3.391h73.58C280.02,772.32,289.52,781.83,289.79,807.97z"/>
<path opacity="0.1" enable-background="new    " d="M289.79,808.35v11.69L170,824.9c0,0-27.391-1.87-30.75-18.7
	c-0.268-1.759-0.233-3.552,0.1-5.3c0,0,16.561,15.66,39,13.36l105.44-4.59C285.812,809.334,287.814,808.893,289.79,808.35z"/>
<ellipse transform="matrix(-0.0515 -0.9987 0.9987 -0.0515 -580.8344 1028.0951)" opacity="0.1" enable-background="new    " cx="197.826" cy="789.886" rx="6.32" ry="36.829"/>
<path fill="#514E7F" d="M209.52,786.9l-19.38,9.58l-20.62-4.88l-0.1-33.61c1.31-24.529-10-73.63-15.59-95.88
	c-2.153-8.6-4.037-17.267-5.65-26l-6.34-34.149l-10.32-88.74h24.561l14.439,20.68L209.52,786.9z"/>
<path fill="#514E7F" d="M209.52,786.9l-19.38,9.58l-12.36-71.78c0.24-12.229-15.09-70.29-16.09-72.68
	C149.47,622.85,139,513.26,139,513.26h17.09l14.43,20.64L209.52,786.9z"/>
<path opacity="0.15" enable-background="new    " d="M209.52,786.9l-19.38,9.58l-12.36-71.78c0.24-12.229-15.09-70.29-16.09-72.68
	C149.47,622.85,139,513.26,139,513.26h17.09l14.43,20.64L209.52,786.9z"/>
<path fill="#514E7F" d="M325.05,720.32l-66,69.55l-7.74,0.551l-9.43,0.68c-4.47,0.322-8.662-2.194-10.48-6.29
	c-20-45-83.939-262.59-97.399-308.68c-1.357-4.633,1.299-9.488,5.931-10.845c0.066-0.02,0.133-0.038,0.199-0.056l9-2.42l0.67,0.08
	l96.15,12.899c5.606,0.755,10.277,4.671,12,10.061l70.379,219.93C329.97,710.862,328.713,716.434,325.05,720.32z"/>
<path opacity="0.1" enable-background="new    " d="M325.05,720.32l-66,69.55l-7.74,0.551l-9.43,0.68
	c-4.47,0.322-8.662-2.194-10.48-6.29c-20-45-83.939-262.59-97.399-308.68c-1.357-4.633,1.299-9.488,5.931-10.845
	c0.066-0.02,0.133-0.038,0.199-0.056l9-2.42l0.67,0.08l96.15,12.899c5.606,0.755,10.277,4.671,12,10.061l70.379,219.93
	C329.97,710.862,328.713,716.434,325.05,720.32z"/>
<path fill="#514E7F" d="M324.82,720.56l-65.77,69.34l-7.74,0.55l-98.7-316c-1.68-3.628-2.621-7.554-2.77-11.55l97.76,13.12
	c4.627,0.621,8.481,3.853,9.9,8.3l70.77,221.15C329.959,710.753,328.637,716.537,324.82,720.56z"/>
<path fill="#1BB1DC" d="M320,708.9c-0.723,1.223-1.619,2.335-2.66,3.3l-64.75,60.2l-88.34-292.79l84.83,8.4
	c6.005,0.59,11.058,4.75,12.79,10.53l59.59,198.43C322.666,700.976,322.136,705.303,320,708.9z"/>
<path opacity="0.1" enable-background="new    " d="M320,708.9l-70.92-220.89c6.005,0.59,11.058,4.75,12.79,10.53l59.59,198.43
	C322.666,700.976,322.136,705.303,320,708.9z"/>
<circle fill="#945B79" cx="700.27" cy="344.15" r="37.55"/>
<path fill="#945B79" d="M662.329,338.58c-0.003-19.871,15.475-36.305,35.311-37.49c-0.74,0-1.48-0.069-2.23-0.069
	c-20.74-0.339-37.829,16.2-38.168,36.941s16.2,37.83,36.941,38.168c0.409,0.007,0.818,0.007,1.227,0c0.75,0,1.49,0,2.23-0.069
	C677.808,374.875,662.331,358.447,662.329,338.58z"/>
<path opacity="0.1" enable-background="new    " d="M667.19,344.15c0.002-19.874,15.49-36.305,35.33-37.48
	c-0.74,0-1.49-0.069-2.24-0.069c-20.741,0.338-37.28,17.426-36.942,38.167c0.33,20.265,16.679,36.612,36.942,36.942
	c0.75,0,1.5,0,2.24-0.08C682.678,380.46,667.187,364.026,667.19,344.15z"/>
<path fill="#FFC1C7" d="M507,765.18c-3.508,1.853-7.121,3.499-10.82,4.93c-9.66,3.8-24.38,8.16-38.09,6.49
	c-23.051-2.8-36.841,4.74-36.841,4.74l-5.17-38.351c0,0,17-5,23.91-6.25c5.181-1,23.87-9.609,32.84-13.84c3-1.4,4.87-2.32,4.87-2.32
	h17.24L507,765.18z"/>
<path opacity="0.1" enable-background="new    " d="M507,765.18c-3.508,1.853-7.121,3.499-10.82,4.93
	c-1.17-34.149-14.271-44.29-23.351-47.21c3-1.4,4.87-2.32,4.87-2.32h17.24L507,765.18z"/>
<path fill="#FF6584" d="M570.78,650.56v84l-4.51,5.34L551.82,757c0,0-3.229,9-8.62,12.921c-5.39,3.92-17.68-1.29-17.68-1.29
	l-3.45,5.6c0,0-7.75,1.51-11.41,0c-3.659-1.51-12.72,4.31-12.72,4.31c1.3-61.619-32.1-56.659-32.1-56.659
	c23.05-24.78,37.27-16.811,37.27-16.811l9.92-9.479l12.28-12.44c-2.8-9.63,7.32-11.689,9.69-12.77
	c2.369-1.08,8.619-11.42,8.409-12.71s1.931-9.7,5.38-9.37c1.921,0.18,4.551-3.19,6.53-6.221c1.58-2.439,2.74-4.659,2.74-4.659
	L570.78,650.56z"/>
<path fill="#FF6584" d="M600.61,566.591l25.4-13l-1.44,15.229l5,15.3c0,0-4.59,11.851-5.16,13.141
	c-0.569,1.29-11.489,28.3-11.489,28.3l-8.761-11.061L600.61,566.591z"/>
<polyline opacity="0.1" enable-background="new    " points="604.17,614.5 600.61,566.591 626.01,553.6 "/>
<path fill="#FFC1C7" d="M709.75,552.31c0,0-8.44,12.14-20,27.61c-26.9,36-70.66,90-64,50.819c0.22-1.279,0.39-2.56,0.539-3.85
	c-1.64,1.1-5.399,0.14-9.5-1.811l-0.279-0.13c-2.022-0.99-3.974-2.12-5.84-3.38c-0.211-0.13-0.41-0.27-0.61-0.41
	c-4.55-3.17-8.19-6.88-8-9.439c3.229-56.24,16.32-29.42,20-23.18c0.208,0.437,0.492,0.833,0.84,1.17c-0.16-0.44-0.34-0.9-0.54-1.381
	c-2.58-6.33-7.51-15.789-13.14-25.899v-0.101l-0.75-1.34c-4.681-8.35-9.75-17.08-14.311-24.74l-1.229-2.06
	c-7.2-12.08-12.8-21.09-12.8-21.09s32.71-29.92,60.279-48.101c23-15.189,42.48-22.199,36.25,3.28c-4,16.38-2.83,30.391,0.86,42
	c0.13,0.431,0.27,0.86,0.42,1.28c0.741,2.213,1.596,4.386,2.561,6.51c1.307,2.928,2.804,5.767,4.479,8.5
	C691.254,536.858,699.71,545.645,709.75,552.31z"/>
<path opacity="0.15" enable-background="new    " d="M658.9,506.9c-15.51,16.85-18.81,33-43.52,33
	c-7.189,0.005-14.35-0.902-21.311-2.7c-7.79-13.1-14-23.149-14-23.149s110.22-100.791,96.53-44.82
	C672.42,486.14,654.89,495,658.9,506.9z"/>
<path fill="#FFC1C7" d="M700.27,452.341c0,46.889-38.011,84.899-84.9,84.899c-46.889,0-84.899-38.011-84.899-84.899
	c0-46.89,38.011-84.9,84.899-84.9c0.004,0,0.007,0,0.011,0c46.679-0.205,84.685,37.47,84.89,84.148
	C700.271,451.84,700.271,452.09,700.27,452.341z"/>
<path opacity="0.1" enable-background="new    " d="M613.44,599.28c0,0,1.51,24.13,16.811,22.19
	c15.3-1.94,3.659,51.279,3.659,51.279l-17,15.511l-18.34,5.64c0,0-16.16-4.74-15.939-5.609c0.22-0.87,6.46-51.271,6.46-51.271
	l9.479-26.94L613.44,599.28z"/>
<path fill="#514E7F" d="M613.44,601c0,0,1.51,24.131,16.811,22.2c15.3-1.93,3.659,51.28,3.659,51.28l-17,15.51l-18.319,5.601
	c0,0-16.16-4.74-15.94-5.601c0.22-0.859,6.46-51.279,6.46-51.279l9.48-26.931L613.44,601z"/>
<path opacity="0.1" enable-background="new    " d="M570.78,650.56v84l-4.51,5.34c-4.65-12.34-8.19-29.07-6-44.109
	c2.85-19.94-2.83-45.461-4.89-53.73c1.58-2.44,2.739-4.66,2.739-4.66L570.78,650.56z"/>
<path opacity="0.1" enable-background="new    " d="M615.38,603.591c-0.546,4.732-1.776,9.36-3.65,13.739
	c-0.56,1.33-1.13,2.62-1.7,3.83c-4.55-3.17-8.189-6.88-8-9.439c3.23-56.24,16.32-29.42,20-23.18
	C620.23,589.9,616.21,593.9,615.38,603.591z"/>
<path opacity="0.1" enable-background="new    " d="M622.31,588.33c-2.7-6.63-8-16.699-13.93-27.34l0.75-0.38l13.72,27.38
	C622.657,588.084,622.477,588.197,622.31,588.33z"/>
<path opacity="0.1" enable-background="new    " d="M709.75,552.31c0,0-93.511,134.45-84,78.43c0.22-1.279,0.39-2.56,0.539-3.85
	c-1.68,1.12-5.569,0.1-9.779-1.94c0.64-3.739,1-6.3,1-6.3l10.35-29.28c0,0,6-23.27,5.17-28l0.28-0.189l51.46-34.55h0.05l0,0
	C691.148,536.914,699.658,545.68,709.75,552.31z"/>
<path fill="#FF6584" d="M806.71,654.01l-7.33,37.89l-22,159.87H586.52c0,0,3.44-28,3.44-32.32c0-4.319-3.87-10.77-3.44-15.51
	s2.08-1.3,0-9.479c-2.08-8.181-3-30.601-9.87-38.351s-18.13-36.21-14.7-60.3c3.431-24.09-5.609-56.45-5.609-56.45
	s-7.75-11.21,0-11.64c7.75-0.431,10.779,0.39,10.35-7.34c-0.43-7.73,3.44-22.391,8.18-25.41c4.74-3.021,11.641-14.221,12.931-18.53
	c0.43-1.084,1.116-2.049,2-2.81c3.88-3.721,11.77-7.53,11.77-7.53l7.54-3.771v0.101l13.68,27.279c0,0-6.399,3.11-7.47,15.601
	c-0.544,4.732-1.774,9.361-3.649,13.74c-0.36,0.859-0.721,1.71-1.091,2.52c-1.1,2.44-2.22,4.6-3.17,6.32l0,0
	c-1.409,2.55-2.42,4.12-2.42,4.12s-0.37,2.92-0.93,7l0,0c-1.15,8.38-3.09,21.659-4.24,24.84c-1,2.819-3,7.67-4.109,12
	c-0.7,2.71-1.101,5.22-0.73,6.859c0,0.131,0.06,0.261,0.1,0.381c1.29,4,7.75-13.2,7.75-13.2s4.74-14.65,6.9-14.65
	c1.65,0,5.36-20.68,7-30.22c0.48-2.851,0.771-4.7,0.771-4.7l10.35-29.29c0,0,1.43-5.53,2.8-11.75c1.44-6.54,2.811-13.83,2.37-16.26
	l0.28-0.19l51.46-34.55h0.05l0.79-0.53h-0.08c-0.36,0-1.4-0.64-3.39-5.319c-0.511-1.19-1.08-2.63-1.71-4.41
	c0,0,16.46-6.61,22.33-1.771c0.381,0.306,0.717,0.662,1,1.061c0.166,0.222,0.311,0.46,0.43,0.71c3.88,8,5.6,14,9.479,19.18
	c0.421,0.552,0.875,1.075,1.36,1.57c4.689,4.91,14,10.66,12.43,12.22c-1.72,1.72,12.931,9,12.931,9s8.569,4.9,11.26,9
	c0.471,0.635,0.749,1.392,0.8,2.18c0,4.311,12.5,6.891,16.38,6.891s22.41,40.08,31.45,44.82
	C809.31,627.62,806.71,654.01,806.71,654.01z"/>
<g opacity="0.1">
	<path d="M613.369,589.711c0,0-6.399,3.109-7.47,15.6c-0.543,4.734-1.776,9.363-3.66,13.74c-1.251,3.023-2.669,5.975-4.25,8.84l0,0
		c-1.409,2.55-2.42,4.12-2.42,4.12s-0.37,2.92-0.93,7l0,0c-1.12,8.45-3.12,21.729-4.25,24.89c-1,2.82-3,7.67-4.11,12
		c-0.7,2.71-1.1,5.22-0.729,6.86c0,0.13,0.06,0.26,0.1,0.38c1.29,4,7.75-13.2,7.75-13.2s4.74-14.65,6.9-14.65
		c0.609,0,1.51-2.859,2.479-6.939c0.49-3.271,1-6.54,1.33-9.28l0,0c0.561-4.1,0.93-7,0.93-7s0.57-0.88,1.45-2.4
		c0.92-5.27,1.561-9.25,1.561-9.25l10.35-29.289c0,0,0.75-2.92,1.69-6.891l-11-21.87l-7.54,3.771l0,0L613.369,589.711z"/>
	<path d="M800.24,622.98c-9-4.74-27.569-44.82-31.45-44.82c-3.88,0-16.38-2.58-16.38-6.89s-12.06-11.21-12.06-11.21
		s-14.65-7.32-12.93-9c1.55-1.561-7.74-7.311-12.431-12.22c-0.483-0.497-0.937-1.021-1.359-1.57c-3.88-5.18-5.601-11.21-9.48-19.18
		c-0.122-0.253-0.266-0.493-0.43-0.721c-0.288-0.394-0.624-0.749-1-1.06c-2.641-2.17-7.4-2-11.86-1.22
		c0.863,0.253,1.671,0.667,2.38,1.22c0.377,0.311,0.713,0.666,1,1.06c0.165,0.228,0.309,0.468,0.431,0.721
		c3.88,8,5.6,14,9.479,19.18c0.428,0.536,0.885,1.047,1.37,1.53c4.69,4.91,14,10.66,12.43,12.22c-1.72,1.72,12.931,9,12.931,9
		s12.06,6.9,12.06,11.21c0,4.311,12.5,6.89,16.38,6.89s22.41,40.08,31.45,44.82s6.47,31,6.47,31l-7.34,37.96l-22,159.87h9.48
		l22-159.87l7.33-37.92C806.71,653.98,809.289,627.72,800.24,622.98z"/>
</g>
<path fill="#FFC1C7" d="M423.92,743.77c0,0-54.811-15.86-58.69,8.49c-3.88,24.35,22.41,38.35,39.21,37.92
	c16.8-0.431,24.13-16.38,24.13-16.38L423.92,743.77z"/>
<path fill="#FFC1C7" d="M698.76,818.62c0,0-12.28,8.83-38.351,8.83c-26.069,0-56.449,5.601-56.449,5.601S565.18,741.7,487.4,819.9
	c0,0-14,18.1,58.601,20c0,0,25.64-0.859,31.239,11.85h145l19.83-14.85L698.76,818.62z"/>
<path fill="#514E7F" d="M407.03,704.421c0,0-3.66-8.61-8,0l-2.35,66.8l5.16,15.729l5.16-14L407.03,704.421z"/>
<path opacity="0.1" enable-background="new    " d="M703.72,517.341c-7.521,2.56-15.771,8.56-18.2,10.439c-0.45,0-2-1-5.1-9.729
	C680.409,518.051,699.02,510.58,703.72,517.341z"/>
<path fill="#FF6584" d="M622.85,589.711c0,0-6.4,3.109-7.47,15.6c-0.545,4.732-1.774,9.361-3.65,13.74l-4.21,8.85l0,0l-3.35,11.141
	l0,0l0.35,22.68l-8.76,14.18l-0.73,6.86l-2.27,21.22l-11.641-5.6c0,0,4.801-34.221,8.4-41.15s8.41-43.63,8.41-43.63
	s-0.22-13.47,1.51-15.84c1.73-2.37-3-1.94-3.45-6.891c-0.26-2.939-3.54-11.1-6.17-17.25c3.88-3.72,11.771-7.529,11.771-7.529
	l7.54-3.771L622.85,589.711z"/>
<path opacity="0.1" enable-background="new    " d="M622.85,589.711c0,0-6.4,3.109-7.47,15.6c-0.545,4.732-1.774,9.361-3.65,13.74
	l-4.21,8.85l0,0l-3.35,11.141l0,0l0.35,22.68l-8.76,14.18l-0.73,6.86l-2.27,21.22l-11.641-5.6c0,0,4.801-34.221,8.4-41.15
	s8.41-43.63,8.41-43.63s-0.22-13.47,1.51-15.84c1.73-2.37-3-1.94-3.45-6.891c-0.26-2.939-3.54-11.1-6.17-17.25
	c3.88-3.72,11.771-7.529,11.771-7.529l7.54-3.771L622.85,589.711z"/>
<path opacity="0.1" enable-background="new    " d="M714.99,540.53c-9.609,7.86-35.45,30.16-38.42,45.32
	c-3.66,18.69-14.649,16.88-14.649,16.88c-13.73-29.78-23.181-37.08-28.591-38.11l51.46-34.56c0,0,0,0,0.051,0l0.79-0.53h-0.11
	c-0.36,0-1.4-0.63-3.39-5.31l20.62-6.19c0.381,0.306,0.717,0.662,1,1.061c0.164,0.223,0.308,0.461,0.43,0.71
	c3.88,8,5.6,14,9.479,19.18C714.073,539.521,714.518,540.039,714.99,540.53z"/>
<path fill="#FF6584" d="M714.99,538.801c-9.609,7.859-35.45,30.17-38.42,45.33c-3.66,18.68-14.649,16.87-14.649,16.87
	C648.19,571.23,638.74,563.9,633.329,562.9l51.46-34.55h0.051l0.79-0.53h-0.11c-0.36,0-1.4-0.64-3.39-5.32l20.62-6.18
	c0.381,0.305,0.717,0.662,1,1.061c0.166,0.222,0.311,0.459,0.43,0.71c3.88,8,5.6,14,9.479,19.18
	C714.072,537.806,714.516,538.318,714.99,538.801z"/>
<path opacity="0.1" enable-background="new    " d="M656.75,689.77c0.64-0.21,34.22-19.22,30.359-4.76
	C683.25,699.47,656.75,689.77,656.75,689.77z"/>
<path opacity="0.1" enable-background="new    " d="M511.52,707.98c0,0,17.66,27.47,23.91,26.61
	C541.68,733.73,511.52,707.98,511.52,707.98z"/>
<path opacity="0.1" enable-background="new    " d="M533.52,697.75c0,0,1.08,21.33,10.35,22.83
	C553.14,722.08,533.52,697.75,533.52,697.75z"/>
<path opacity="0.1" enable-background="new    " d="M631.52,766.26c0,0,21.94,36.5,17.67,49.13L631.52,766.26z"/>
<path opacity="0.1" enable-background="new    " d="M656.96,770.57c0,0,29.68,39,24.54,42.23
	C676.36,816.03,656.96,770.57,656.96,770.57z"/>
<path opacity="0.1" enable-background="new    " d="M590.23,707.98c0,0-3.05,27.73,8.4,35.79L590.23,707.98z"/>
<path opacity="0.1" enable-background="new    " d="M723.329,584.631c0,0-50.81,39.43-42.67,80.369c8.141,40.94,16,43.95,16,43.95
	s3,16.37,8.62,23.271c5.62,6.899,4.74,11.42,4.74,11.42s5.17-2.37,6.89,9.479c1.721,11.851,10.771,20.25,10.771,20.25
	s3,9.48-4.74,14.65s-6,10.78-6,10.78l-31.46,18.31l35.04,34.69h90.5c0,0-2.59-4.521,3-11c5.59-6.48,2.81-32.101,2.81-32.101
	s-3.13-4.1,0.7-13.149c3.83-9.051-3.29-34.9-3.29-34.9l-8-25.21c0,0-6.68-17.88-5.6-27.47s-2.2-20.07-2.2-20.07l-17.37-54.8
	C781.07,633.1,781.93,578.381,723.329,584.631z"/>
<path fill="#FF6584" d="M725.05,584.631c0,0-50.851,39.43-42.66,80.369c8.19,40.94,15.94,43.95,15.94,43.95s3,16.37,8.619,23.271
	c5.62,6.899,4.74,11.42,4.74,11.42s5.17-2.37,6.9,9.479c1.729,11.851,10.77,20.25,10.77,20.25s3,9.48-4.74,14.65
	c-7.739,5.17-6,10.78-6,10.78l-31.46,18.31l35.12,34.69h90.49c0,0-2.58-4.521,3-11c5.58-6.48,2.8-32.101,2.8-32.101
	s-3.13-4.1,0.7-13.149c3.83-9.051-3.29-34.9-3.29-34.9l-8-25.21c0,0-6.68-17.88-5.6-27.47s-2.221-20.07-2.221-20.07l-17.37-54.8
	C782.789,633.1,783.65,578.381,725.05,584.631z"/>
<path opacity="0.1" enable-background="new    " d="M742.07,612.421c0,0,36.2,12.279,45.891,18.319
	C797.65,636.78,773.74,606.82,742.07,612.421z"/>
<path opacity="0.1" enable-background="new    " d="M761.03,798.801c0,0,51.49,6.46,48.49,16.59S761.03,798.801,761.03,798.801z"/>
<path opacity="0.1" enable-background="new    " d="M750.94,809.78c0,0,37.67,12.07,31,22
	C775.27,841.711,750.94,809.78,750.94,809.78z"/>
<path opacity="0.1" enable-background="new    " d="M751.61,569.091c-20.55,4-41.2,7.42-61.859,10.83l-5.381,0.89
	c-11.359,1.87-22.789,3.75-34.31,3.69c-5.61,0-11.39-0.58-16.37-3.181c-1.064-0.564-2.069-1.234-3-2c-3.49-2.8-6-6.87-5.939-11.29
	c0.06-8.06,7.71-13.649,14.289-18.31c9.631-6.83,19.141-15.5,22.86-26.391c0.708-2.041,1.194-4.153,1.45-6.3
	c1.1-9.25-2.271-18.38-5.86-27c-3.92-9.35-9.3-19.399-17.159-25.08c-3.182-2.338-6.898-3.841-10.811-4.37
	c-12.08-1.6-23.51,7-35.68,6.521c-9.891-0.43-18.29-6.78-24.24-14.25c-4.33-5.44-7.07-12.72-13.59-15.95
	c-7.061-3.51-15.09-4.34-22.94-5.51c11.563-45.441,57.773-72.905,103.215-61.342c45.44,11.563,72.904,57.773,61.342,103.214
	c-3.521,13.836-10.474,26.562-20.217,36.998c0.13,0.43,0.271,0.859,0.42,1.28c0.741,2.212,1.596,4.385,2.561,6.51
	c0,0,16.46-6.61,22.33-1.771c0.381,0.306,0.718,0.662,1,1.061c0.166,0.222,0.311,0.459,0.43,0.71c3.88,8,5.601,14,9.48,19.18
	c0.42,0.551,0.874,1.075,1.359,1.57c4.69,4.91,14,10.66,12.431,12.22c-1.721,1.72,12.93,9,12.93,9S748.92,564.97,751.61,569.091z"/>
<path fill="#945B79" d="M508.67,416.09c-7.66-9.88-6.83-23.84-4-36c1.779-7.67,4.31-15.38,9.27-21.489
	c4.96-6.11,12.771-10.391,20.58-9.33c4.57,0.62,8.7,2.95,13,4.649c19.3,7.641,43.24,1.29,56.22-14.92c2.94-3.67,5.37-7.79,8.851-11
	c3.897-3.36,8.561-5.713,13.58-6.85c21.72-5.48,44.12,5.31,62.699,17.82c15.86,10.68,30.94,23.149,41.351,39.18
	c9.46,14.646,14.653,31.638,15,49.07c0.53,27.6-11.11,55.439-4.45,82.22c6.57,26.45,32.4,46.811,59.65,47
	c-37.42,9.18-75.48,15.47-113.49,21.74c-11.37,1.88-22.79,3.76-34.311,3.689c-5.609,0-11.399-0.579-16.369-3.18
	c-4.971-2.6-9-7.649-9-13.26c0.06-8.07,7.72-13.65,14.29-18.311c11.42-8.1,22.67-18.79,24.319-32.689c1.101-9.25-2.27-18.39-5.87-27
	c-5.489-13.101-13.859-27.61-27.939-29.49c-12.07-1.61-23.51,7-35.681,6.51c-9.88-0.43-18.289-6.779-24.239-14.25
	c-4.33-5.439-7.07-12.72-13.58-15.949C542.46,426.291,521.23,432.28,508.67,416.09z"/>
<path fill="#945B79" d="M728.75,365.75c16.321-11.328,20.994-33.411,10.659-50.38c0.46,0.58,0.9,1.18,1.33,1.79
	c12.087,16.859,8.218,40.324-8.641,52.41c-16.859,12.087-40.324,8.218-52.41-8.641c-0.225-0.313-0.444-0.63-0.659-0.949
	c-0.42-0.62-0.83-1.25-1.21-1.88C690.098,373.724,712.423,377.078,728.75,365.75z"/>
<g opacity="0.1">
	<path d="M609.76,335.37c2.939-3.68,5.37-7.8,8.85-11c0.571-0.521,1.169-1.011,1.79-1.47c-2.863,1.187-5.507,2.847-7.82,4.91
		c-3.479,3.18-5.909,7.3-8.85,11c-2.985,3.7-6.523,6.918-10.49,9.54C599.647,345.312,605.292,340.877,609.76,335.37z"/>
	<path d="M692.99,574.61c-11.359,1.87-22.79,3.75-34.31,3.681c-5.61,0-11.391-0.57-16.37-3.171c-4.98-2.6-9-7.649-8.95-13.27
		c0.061-8.06,7.71-13.64,14.29-18.31c11.42-8.101,22.66-18.79,24.31-32.69c1.101-9.24-2.27-18.39-5.869-27
		c-5.49-13.1-13.851-27.62-27.94-29.49c-12.07-1.609-23.5,7-35.67,6.5c-9.88-0.42-18.29-6.77-24.24-14.24
		c-4.34-5.439-7.08-12.72-13.59-15.949c-16.16-8-37.39-2-50-18.221c-7.66-9.88-6.82-23.85-4-36c1.78-7.67,4.31-15.38,9.26-21.5
		c1.389-1.703,2.973-3.237,4.721-4.57c-4.202,1.715-7.901,4.468-10.75,8c-5,6.11-7.49,13.83-9.271,21.49
		c-2.83,12.18-3.66,26.15,4,36c12.561,16.19,33.79,10.2,50,18.221c6.51,3.239,9.25,10.52,13.58,16c6,7.46,14.36,13.819,24.24,14.239
		c12.17,0.521,23.609-8.119,35.68-6.51c14.08,1.88,22.45,16.391,27.94,29.5c3.6,8.58,7,17.72,5.87,27
		c-1.65,13.9-12.9,24.59-24.32,32.69c-6.57,4.66-14.23,10.25-14.29,18.31c0,5.61,4,10.67,9,13.271c5,2.6,10.76,3.14,16.37,3.17
		c11.52,0.069,23-1.811,34.31-3.69c38-6.27,76.07-12.55,113.49-21.74c-2.214-0.022-4.425-0.176-6.62-0.46
		C760.52,563.461,726.73,569.041,692.99,574.61z"/>
</g>
<ellipse fill="#FFC1C7" cx="410.72" cy="755.48" rx="16.399" ry="8.96"/>
</svg>
