<?xml version="1.0" encoding="utf-8"?>
<!-- Generator: Adobe Illustrator 16.0.0, SVG Export Plug-In . SVG Version: 6.00 Build 0)  -->
<!DOCTYPE svg PUBLIC "-//W3C//DTD SVG 1.1//EN" "http://www.w3.org/Graphics/SVG/1.1/DTD/svg11.dtd">
<svg version="1.1" id="_x38_13c2686-e70f-4fb0-bf6b-a2eb7b1db384"
	 xmlns="http://www.w3.org/2000/svg" xmlns:xlink="http://www.w3.org/1999/xlink" x="0px" y="0px" width="1121.039px"
	 height="851.801px" viewBox="0 0 1121.039 851.801" enable-background="new 0 0 1121.039 851.801" xml:space="preserve">
<title>interaction design</title>
<g>
	<g>
		<path fill-rule="evenodd" clip-rule="evenodd" fill="#FDEDE2" d="M769.025,568.699h57.939h1.506
			c31.995,0,58.171,26.177,58.171,58.171l0,0c0,31.993-26.176,58.169-58.171,58.169H658.65h-29.249H325.822
			c-51.807,0-94.194-42.387-94.194-94.192v-0.001c0-51.806,42.387-94.192,94.193-94.193h0c21.905,0,39.827-17.922,39.827-39.827l0,0
			c0-21.905-17.922-39.827-39.828-39.827h-47.932c-22.774,0-41.407-18.634-41.407-41.407l0,0c0-22.774,18.633-41.408,41.407-41.408
			h88.269c8.867,0,16.12-7.253,16.12-16.12l0,0c0-8.867-7.253-16.12-16.12-16.12h-23.744c-6.119,0-11.125-5.007-11.125-11.125
			v-0.001c0-6.118,5.006-11.125,11.125-11.125h25.448c0,0,15.3,0,30.065,0s24.093,17.443,61.39,17.443c57.657,0,73.226,0,130.883,0
			c7.984,0,14.518,6.535,14.518,14.518l0,0c0,7.982-6.534,14.517-14.518,14.517h-16.958c-11.569,0-21.035,9.467-21.035,21.034v0.001
			c0,11.567,9.465,21.035,21.035,21.035h28.132c56.658,0,64.661,14.807,74.585,44.257c9.923,29.45,61.46,31.824,61.46,31.824h35.235
			c17.435,0,31.699,14.266,31.699,31.699l0,0c0,17.436-14.265,31.701-31.699,31.701h-3.629c-16.77,0-30.49,13.72-30.49,30.489l0,0
			C738.534,554.979,752.255,568.699,769.025,568.699L769.025,568.699z M311.192,301.943c6.145,0,11.126-4.98,11.126-11.125
			c0-6.146-4.981-11.126-11.126-11.126s-11.125,4.98-11.125,11.126C300.066,296.962,305.047,301.943,311.192,301.943z"/>
		<g>
			<path fill-rule="evenodd" clip-rule="evenodd" fill="#E3B19B" d="M552.865,352.418h-35.234v122.659h116.551V370.745
				c-8.645-1.668-19.353-2.506-32.81-2.506h-28.132C563.47,368.24,555.2,361.486,552.865,352.418z"/>
			<path fill-rule="evenodd" clip-rule="evenodd" fill="#FCE4D6" d="M552.483,350.594h-37.588v122.359h116.552V370.258
				c-8.144-1.343-18.001-2.018-30.073-2.018h-28.132C562.825,368.24,554.116,360.566,552.483,350.594z"/>
			<path fill-rule="evenodd" clip-rule="evenodd" fill="#FFFFFF" d="M621.593,369.036v94.065h-96.846V360.446h32.182
				c3.865,4.748,9.75,7.794,16.312,7.794h28.132C608.945,368.24,615.639,368.507,621.593,369.036z"/>
			<rect x="375.883" y="352.418" fill-rule="evenodd" clip-rule="evenodd" fill="#E3B19B" width="116.552" height="95.031"/>
			<rect x="373.146" y="350.594" fill-rule="evenodd" clip-rule="evenodd" fill="#FCE4D6" width="116.552" height="95.03"/>
			<rect x="382.998" y="360.446" fill-rule="evenodd" clip-rule="evenodd" fill="#FFFFFF" width="96.847" height="75.326"/>
		</g>
		<linearGradient id="SVGID_1_" gradientUnits="userSpaceOnUse" x1="475.7576" y1="392.1086" x2="475.7576" y2="299.5413">
			<stop  offset="0" style="stop-color:#FDEDE2"/>
			<stop  offset="1" style="stop-color:#FFFFFF"/>
		</linearGradient>
		<path fill-rule="evenodd" clip-rule="evenodd" fill="url(#SVGID_1_)" d="M364.529,467.4c0.935-3.371,1.437-6.916,1.437-10.575l0,0
			c0-4.833-0.874-9.471-2.468-13.767l68.68-114.983h72.622L588.017,467.4H364.529z"/>
		<g>
			<g>
				<polygon fill-rule="evenodd" clip-rule="evenodd" fill="#E3B19B" points="508.762,328.075 427.578,328.075 468.171,304.158 				
					"/>
				<path fill-rule="evenodd" clip-rule="evenodd" fill="#E3B19B" d="M427.901,325.739h80.54c1.283,0,2.337,1.05,2.337,2.336l0,0
					c0,1.285-1.054,2.335-2.337,2.335h-80.54c-1.283,0-2.337-1.05-2.337-2.335l0,0C425.564,326.789,426.618,325.739,427.901,325.739
					z"/>
				<rect x="466.285" y="297.135" fill-rule="evenodd" clip-rule="evenodd" fill="#E3B19B" width="3.772" height="11.738"/>
			</g>
			<ellipse fill-rule="evenodd" clip-rule="evenodd" fill="#FFFFFF" cx="468.171" cy="330.427" rx="37.92" ry="4.171"/>
		</g>
		<path fill-rule="evenodd" clip-rule="evenodd" fill="#E3B19B" d="M341.917,363.712c0-0.624,0.506-1.13,1.131-1.13
			c0.624,0,1.13,0.506,1.13,1.13v2.66h2.659c0.625,0,1.131,0.505,1.131,1.13c0,0.624-0.506,1.13-1.131,1.13h-2.659v2.66
			c0,0.624-0.506,1.13-1.13,1.13c-0.625,0-1.131-0.506-1.131-1.13v-2.66h-2.659c-0.625,0-1.131-0.506-1.131-1.13
			c0-0.625,0.506-1.13,1.131-1.13h2.659V363.712z"/>
		<path fill-rule="evenodd" clip-rule="evenodd" fill="#E3B19B" d="M310.335,383.978L310.335,383.978L310.335,383.978z
			 M306.908,370.927c-1.194-1.193-2.842-1.932-4.663-1.932c-1.82,0-3.469,0.739-4.662,1.932c-1.193,1.193-1.931,2.841-1.931,4.662
			c0,1.821,0.738,3.47,1.931,4.663c1.193,1.193,2.842,1.931,4.662,1.931c1.821,0,3.469-0.738,4.663-1.931
			c1.193-1.193,1.931-2.842,1.931-4.663C308.839,373.769,308.101,372.12,306.908,370.927L306.908,370.927z M305.483,364.393
			c0.914,0.263,1.78,0.635,2.584,1.099c0.825,0.478,1.586,1.053,2.267,1.709c0.133,0.127,0.331,0.147,0.483,0.059l3.063-1.769
			l0.017-0.01c0.176-0.095,0.375-0.112,0.559-0.063c0.188,0.051,0.358,0.172,0.461,0.353l0.013,0.021l2.156,3.734
			c0.104,0.179,0.124,0.388,0.073,0.577c-0.05,0.188-0.172,0.357-0.352,0.461l-0.021,0.012l-3.039,1.754
			c-0.16,0.093-0.233,0.276-0.191,0.446h0c0.112,0.453,0.198,0.918,0.256,1.393c0.056,0.464,0.085,0.938,0.085,1.42
			c0,0.483-0.029,0.957-0.085,1.42c-0.058,0.477-0.145,0.942-0.256,1.393c-0.046,0.188,0.047,0.378,0.214,0.46l3.038,1.753l0,0.001
			c0.18,0.104,0.302,0.273,0.352,0.461c0.051,0.189,0.03,0.396-0.073,0.577l-2.168,3.755l-0.001-0.001
			c-0.104,0.181-0.273,0.302-0.461,0.353c-0.188,0.051-0.395,0.03-0.575-0.074l-0.022-0.011l-3.042-1.757
			c-0.159-0.091-0.354-0.063-0.481,0.059c-0.681,0.656-1.442,1.231-2.267,1.708c-0.809,0.468-1.681,0.842-2.601,1.105
			c-0.178,0.051-0.294,0.212-0.294,0.39v3.534c0,0.208-0.085,0.397-0.223,0.535s-0.327,0.223-0.535,0.223h-4.337
			c-0.208,0-0.397-0.085-0.535-0.223c-0.137-0.138-0.223-0.328-0.223-0.535v-3.535c0-0.191-0.133-0.351-0.312-0.394
			c-0.914-0.264-1.78-0.635-2.584-1.101c-0.825-0.477-1.586-1.052-2.268-1.709c-0.139-0.132-0.348-0.147-0.502-0.045l-3.043,1.757
			c-0.18,0.103-0.387,0.124-0.577,0.073c-0.188-0.05-0.357-0.171-0.461-0.353l-0.013-0.02l-2.156-3.735h0
			c-0.104-0.18-0.125-0.386-0.074-0.575c0.05-0.188,0.172-0.357,0.351-0.461l3.061-1.768c0.16-0.091,0.233-0.275,0.191-0.446l0,0
			c-0.111-0.451-0.198-0.917-0.255-1.393c-0.057-0.464-0.086-0.938-0.086-1.42c0-0.482,0.029-0.957,0.086-1.42
			c0.058-0.477,0.144-0.94,0.255-1.393c0.046-0.188-0.047-0.376-0.213-0.458l-3.039-1.754c-0.179-0.104-0.3-0.273-0.351-0.461
			c-0.051-0.189-0.03-0.396,0.074-0.575l0.012-0.022l2.156-3.734l0,0c0.104-0.18,0.273-0.301,0.461-0.353
			c0.189-0.05,0.396-0.03,0.576,0.074h0l3.064,1.769c0.163,0.095,0.366,0.063,0.492-0.067c0.679-0.653,1.437-1.225,2.258-1.701
			c0.809-0.467,1.681-0.84,2.601-1.104c0.178-0.051,0.294-0.214,0.294-0.39v-3.534c0-0.208,0.085-0.397,0.223-0.535
			c0.138-0.137,0.328-0.223,0.535-0.223h4.337c0.208,0,0.397,0.085,0.535,0.223c0.138,0.138,0.223,0.327,0.223,0.535v3.534
			C305.172,364.189,305.305,364.35,305.483,364.393z"/>
		<path fill-rule="evenodd" clip-rule="evenodd" fill="#E3B19B" d="M809.7,545.311L809.7,545.311L809.7,545.311z M806.273,532.26
			c-1.193-1.192-2.841-1.93-4.662-1.93c-1.82,0-3.469,0.737-4.662,1.93c-1.192,1.193-1.931,2.842-1.931,4.662
			s0.738,3.47,1.931,4.663c1.193,1.192,2.841,1.931,4.662,1.931s3.469-0.738,4.662-1.931c1.193-1.193,1.931-2.843,1.931-4.663
			S807.466,533.454,806.273,532.26L806.273,532.26z M804.849,525.726c0.913,0.264,1.779,0.635,2.583,1.099
			c0.825,0.479,1.587,1.054,2.269,1.71c0.133,0.129,0.33,0.147,0.482,0.059l3.063-1.769l0.017-0.011
			c0.177-0.095,0.376-0.112,0.559-0.063c0.189,0.051,0.358,0.172,0.462,0.353l0.013,0.021l2.155,3.733
			c0.104,0.18,0.125,0.388,0.074,0.576c-0.051,0.189-0.172,0.357-0.354,0.462l-0.02,0.012l-3.038,1.755
			c-0.16,0.093-0.234,0.276-0.191,0.446h-0.002c0.113,0.452,0.199,0.918,0.257,1.395c0.057,0.462,0.086,0.938,0.086,1.419
			c0,0.482-0.029,0.956-0.086,1.42c-0.059,0.477-0.144,0.942-0.257,1.394c-0.046,0.188,0.048,0.378,0.214,0.46l3.039,1.753
			l-0.002,0.001c0.182,0.104,0.303,0.273,0.354,0.462s0.029,0.396-0.074,0.576l-2.168,3.755l0,0
			c-0.104,0.181-0.272,0.302-0.462,0.352c-0.188,0.052-0.395,0.03-0.575-0.073l-0.022-0.012l-3.042-1.757
			c-0.16-0.091-0.355-0.063-0.481,0.059c-0.682,0.656-1.443,1.232-2.268,1.708c-0.81,0.468-1.682,0.842-2.602,1.105
			c-0.178,0.052-0.294,0.214-0.294,0.391v3.533c0,0.208-0.086,0.397-0.223,0.535c-0.139,0.138-0.327,0.223-0.536,0.223h-4.337
			c-0.207,0-0.397-0.085-0.535-0.223c-0.137-0.138-0.223-0.327-0.223-0.535v-3.533c0-0.192-0.132-0.353-0.311-0.396
			c-0.914-0.264-1.781-0.635-2.585-1.101c-0.824-0.476-1.586-1.052-2.267-1.708c-0.139-0.134-0.35-0.148-0.503-0.046l-3.044,1.757
			c-0.179,0.104-0.386,0.124-0.575,0.072c-0.188-0.05-0.357-0.171-0.461-0.352l-0.014-0.021l-2.156-3.735h0.001
			c-0.104-0.18-0.124-0.387-0.074-0.575c0.051-0.188,0.172-0.357,0.352-0.462l3.061-1.767c0.16-0.093,0.232-0.276,0.191-0.447l0,0
			c-0.111-0.451-0.197-0.917-0.255-1.394c-0.058-0.464-0.087-0.938-0.087-1.42c0-0.481,0.029-0.957,0.087-1.421
			c0.058-0.475,0.144-0.94,0.255-1.393c0.046-0.188-0.046-0.376-0.214-0.459l-3.038-1.754c-0.18-0.104-0.301-0.272-0.352-0.462
			c-0.05-0.188-0.029-0.395,0.074-0.575l0.012-0.022l2.156-3.733l0,0c0.104-0.181,0.273-0.302,0.462-0.353
			c0.189-0.051,0.396-0.03,0.575,0.073v0.001l3.063,1.769c0.164,0.095,0.365,0.063,0.492-0.067c0.679-0.652,1.437-1.226,2.259-1.701
			c0.809-0.467,1.681-0.84,2.6-1.104c0.179-0.052,0.295-0.213,0.295-0.391v-3.533c0-0.208,0.086-0.397,0.223-0.535
			c0.138-0.138,0.328-0.223,0.535-0.223h4.337c0.209,0,0.397,0.085,0.536,0.223c0.137,0.138,0.223,0.327,0.223,0.535v3.533
			C804.537,525.522,804.67,525.684,804.849,525.726z"/>
		<path fill-rule="evenodd" clip-rule="evenodd" fill="#E3B19B" d="M414.133,303.788c0-0.625,0.506-1.13,1.131-1.13
			s1.131,0.505,1.131,1.13v2.659h2.659c0.625,0,1.131,0.506,1.131,1.131c0,0.624-0.506,1.13-1.131,1.13h-2.659v2.66
			c0,0.624-0.506,1.13-1.131,1.13s-1.131-0.506-1.131-1.13v-2.66h-2.659c-0.625,0-1.131-0.506-1.131-1.13
			c0-0.625,0.506-1.131,1.131-1.131h2.659V303.788z"/>
		<path fill-rule="evenodd" clip-rule="evenodd" fill="#E3B19B" d="M543.199,276.13c0-0.624,0.506-1.13,1.13-1.13
			s1.131,0.506,1.131,1.13v2.66h2.659c0.625,0,1.131,0.506,1.131,1.13c0,0.625-0.507,1.131-1.131,1.131h-2.659v2.659
			c0,0.625-0.507,1.131-1.131,1.131s-1.13-0.506-1.13-1.131v-2.659h-2.66c-0.624,0-1.13-0.506-1.13-1.131
			c0-0.624,0.506-1.13,1.13-1.13h2.66V276.13z"/>
		<path fill-rule="evenodd" clip-rule="evenodd" fill="#E3B19B" d="M713.752,415.952c0-0.624,0.506-1.13,1.131-1.13
			c0.624,0,1.13,0.507,1.13,1.13v2.66h2.66c0.624,0,1.13,0.506,1.13,1.13c0,0.625-0.506,1.132-1.13,1.132h-2.66v2.658
			c0,0.625-0.506,1.132-1.13,1.132c-0.625,0-1.131-0.506-1.131-1.132v-2.658h-2.659c-0.625,0-1.131-0.506-1.131-1.132
			c0-0.624,0.506-1.13,1.131-1.13h2.659V415.952z"/>
		<path fill-rule="evenodd" clip-rule="evenodd" fill="#E3B19B" d="M885.841,555.775c0-0.624,0.506-1.131,1.131-1.131
			c0.624,0,1.131,0.507,1.131,1.131v2.659h2.658c0.625,0,1.132,0.507,1.132,1.131s-0.507,1.13-1.132,1.13h-2.658v2.66
			c0,0.624-0.507,1.13-1.131,1.13c-0.625,0-1.131-0.506-1.131-1.13v-2.66h-2.659c-0.625,0-1.131-0.506-1.131-1.13
			s0.506-1.131,1.131-1.131h2.659V555.775z"/>
		<path fill-rule="evenodd" clip-rule="evenodd" fill="#E3B19B" d="M824.38,641.82c0-0.624,0.507-1.131,1.131-1.131
			c0.625,0,1.131,0.507,1.131,1.131v2.658h2.659c0.625,0,1.131,0.506,1.131,1.132c0,0.623-0.506,1.13-1.131,1.13h-2.659v2.66
			c0,0.623-0.506,1.13-1.131,1.13c-0.624,0-1.131-0.507-1.131-1.13v-2.66h-2.659c-0.624,0-1.131-0.507-1.131-1.13
			c0-0.626,0.507-1.132,1.131-1.132h2.659V641.82z"/>
		<path fill-rule="evenodd" clip-rule="evenodd" fill="#E3B19B" d="M285.066,629.528c0-0.625,0.506-1.132,1.131-1.132
			c0.624,0,1.13,0.507,1.13,1.132v2.658h2.659c0.625,0,1.131,0.507,1.131,1.131c0,0.625-0.506,1.132-1.131,1.132h-2.659v2.658
			c0,0.625-0.506,1.132-1.13,1.132c-0.625,0-1.131-0.507-1.131-1.132v-2.658h-2.659c-0.625,0-1.131-0.507-1.131-1.132
			c0-0.624,0.506-1.131,1.131-1.131h2.659V629.528z"/>
		<path fill-rule="evenodd" clip-rule="evenodd" fill="#E3B19B" d="M254.336,480.486c0-0.625,0.506-1.13,1.131-1.13
			s1.131,0.505,1.131,1.13v2.658h2.659c0.625,0,1.131,0.507,1.131,1.133c0,0.623-0.506,1.13-1.131,1.13h-2.659v2.659
			c0,0.624-0.506,1.131-1.131,1.131s-1.131-0.507-1.131-1.131v-2.659h-2.659c-0.625,0-1.131-0.507-1.131-1.13
			c0-0.626,0.506-1.133,1.131-1.133h2.659V480.486z"/>
		<path fill-rule="evenodd" clip-rule="evenodd" fill="#E3B19B" d="M284.816,318.428c0-0.625,0.506-1.132,1.131-1.132
			s1.131,0.506,1.131,1.132v2.658h2.659c0.625,0,1.131,0.506,1.131,1.132c0,0.624-0.506,1.13-1.131,1.13h-2.659v2.66
			c0,0.624-0.506,1.13-1.131,1.13s-1.131-0.507-1.131-1.13v-2.66h-2.659c-0.625,0-1.131-0.506-1.131-1.13
			c0-0.625,0.506-1.132,1.131-1.132h2.659V318.428z"/>
		<path fill-rule="evenodd" clip-rule="evenodd" fill="#E3B19B" d="M612.757,346.085c0-0.624,0.506-1.13,1.131-1.13
			c0.624,0,1.131,0.506,1.131,1.13v2.659h2.658c0.625,0,1.132,0.507,1.132,1.13c0,0.625-0.507,1.13-1.132,1.13h-2.658v2.66
			c0,0.625-0.507,1.13-1.131,1.13c-0.625,0-1.131-0.505-1.131-1.13v-2.66h-2.659c-0.625,0-1.131-0.505-1.131-1.13
			c0-0.624,0.506-1.13,1.131-1.13h2.659V346.085z"/>
	</g>
	<g>
		<polygon fill-rule="evenodd" clip-rule="evenodd" fill="#F1D3C4" points="519.339,352.418 517.632,352.418 517.632,467.4 
			588.017,467.4 		"/>
		<polygon fill-rule="evenodd" clip-rule="evenodd" fill="#FDF1E8" points="518.249,350.594 514.895,350.594 514.895,467.4 
			588.017,467.4 		"/>
		<polygon fill-rule="evenodd" clip-rule="evenodd" fill="#FFFFFF" points="585.448,463.101 524.747,463.101 524.747,361.472 		"/>
		<polygon fill-rule="evenodd" clip-rule="evenodd" fill="#F1D3C4" points="492.435,352.418 417.637,352.418 375.883,422.322 
			375.883,447.449 492.435,447.449 		"/>
		<polygon fill-rule="evenodd" clip-rule="evenodd" fill="#FDF1E8" points="489.698,350.594 418.727,350.594 373.146,426.905 
			373.146,445.624 489.698,445.624 		"/>
		<polygon fill-rule="evenodd" clip-rule="evenodd" fill="#FFFFFF" points="479.845,360.446 479.845,435.771 382.998,435.771 
			382.998,410.409 412.842,360.446 		"/>
	</g>
	<g>
		<path fill-rule="evenodd" clip-rule="evenodd" fill="#E9695B" d="M491.134,342.258h42.03c3.053,0,5.551,2.497,5.551,5.551v22.89
			v1.693v14.571c0,0.256-0.146,0.475-0.383,0.573c-0.237,0.097-0.495,0.046-0.675-0.135l-9.458-9.458h-37.064
			c-3.053,0-5.55-2.497-5.55-5.551v-24.583C485.584,344.755,488.081,342.258,491.134,342.258z"/>
		<g>
			<path fill-rule="evenodd" clip-rule="evenodd" fill="#FFFFFF" d="M499.765,363.156c1.684,0,3.057-1.373,3.057-3.056
				c0-1.684-1.373-3.057-3.057-3.057c-1.684,0-3.057,1.373-3.057,3.057C496.709,361.783,498.081,363.156,499.765,363.156z"/>
			<path fill-rule="evenodd" clip-rule="evenodd" fill="#FFFFFF" d="M512.149,363.156c1.684,0,3.057-1.373,3.057-3.056
				c0-1.684-1.373-3.057-3.057-3.057c-1.684,0-3.057,1.373-3.057,3.057C509.093,361.783,510.466,363.156,512.149,363.156z"/>
			<path fill-rule="evenodd" clip-rule="evenodd" fill="#FFFFFF" d="M524.533,363.156c1.684,0,3.057-1.373,3.057-3.056
				c0-1.684-1.373-3.057-3.057-3.057s-3.057,1.373-3.057,3.057C521.477,361.783,522.85,363.156,524.533,363.156z"/>
		</g>
	</g>
	<g>
		<path fill-rule="evenodd" clip-rule="evenodd" fill="#503621" d="M566.42,452.775c0,0,1.591,3.848,0.742,9.02
			c-0.48,2.924-17.921,50.462-19.069,53.542c-1.147,3.081-6.347,8.36-11.688,9.27c-2.169,0.369-17.507,3.284-24.248,4.33
			c-5.971,0.927-7.895-4.895-12.186-8.312c6.539-1.624,31.944-11.681,33.115-12.038c1.397-0.426,2.529-1.079,3.234-3.607
			c0.704-2.528,6.339-27.341,6.339-27.341s3.888-14.543,7.684-17.063C553.788,458.288,559.103,453.009,566.42,452.775z"/>
		<path fill-rule="evenodd" clip-rule="evenodd" fill="#1A1A18" d="M549.057,550.497l-2.423,21.29c0,0,4.913,66.883,6.157,78.501
			c0.716,6.681,2.118,24.721,3.18,38.848h22.989l0.923-131.248L549.057,550.497z"/>
		<path fill-rule="evenodd" clip-rule="evenodd" fill="#302D28" d="M563.476,568.962l-1.196,7.525l4.049,112.648h26.302
			c2.012-18.854,5.054-46.668,6.634-57.727c2.489-17.427,3.342-41.646,3.331-47.378c-0.012-5.733-6.651-14.239-8.934-14.861
			C591.379,568.547,563.476,568.962,563.476,568.962z"/>
		<path fill-rule="evenodd" clip-rule="evenodd" fill="#FCE4D6" d="M576.444,446.402l-13.07,9.336c0,0-9.324,36.507-9.361,38.165
			c-0.037,1.659-3.606,21.792-3.606,21.792s13.07,5.188,14.938,0.207c1.867-4.979,22.82-40.662,23.858-46.264
			c1.037-5.603-1.453-18.879-2.697-20.332C585.26,447.854,576.444,446.402,576.444,446.402z"/>
		<polygon fill-rule="evenodd" clip-rule="evenodd" fill="#E9695B" points="571.665,452.164 570.981,448.138 572.043,445.735 
			573.76,438.474 598.24,423.563 588.117,449.261 		"/>
		<path fill-rule="evenodd" clip-rule="evenodd" fill="#FFFFFF" d="M574.076,452.164c0,0,1.927,1.584,2.39,2.076
			s5.267,10.71,5.935,11.645l11.305-12.656c0,0-0.694-7.623-0.874-7.961s-2.565-2.285-2.565-2.285
			C589.409,446.433,580.293,448.4,574.076,452.164z"/>
		<path fill-rule="evenodd" clip-rule="evenodd" fill="#503621" d="M566.744,452.168c-5.584,1.553-15.967,7.518-18.627,13.5
			c-6.098,13.709,0.221,28.953,0.221,56.309c0,3.526-7.532,54.717-7.636,55.442c-0.104,0.727,0.311,1.557,1.349,1.557
			c1.037,0,17.647-29.76,18.581-32.25c0.933-2.489-0.937-44.069-0.937-44.069l1.754-41.832L566.744,452.168z"/>
		<path fill-rule="evenodd" clip-rule="evenodd" fill="#674834" d="M597.852,457.495c0,0,11.395,3.851,12.018,4.888
			c0.623,1.038-10.866,73.648-11.073,76.346s8.715,42.427,9.026,43.463c0,0,0.051,0.415-0.26,1.038s-1.037,0.985-1.4,1.245
			c-0.363,0.259-34.176-6.815-37.495-8.891c-3.319-2.074-10.477-34.335-10.477-38.691c0-4.357,1.549-19.207,1.549-19.207
			l21.376-39.466C581.116,478.219,587.608,458.595,597.852,457.495z"/>
		<path fill-rule="evenodd" clip-rule="evenodd" fill="#8E6B56" d="M568.174,450.324c-4.414,3.018-10.968,9.943-15.914,14.699
			c1.552,0.412,3.917,1.129,5.1,2.312c0.417,0.417-4.959,1.994-5.514,2.119c-0.471,0.104,8.233,50.481,8.233,50.481
			s2.527-55.889,3.867-59.215c1.339-3.324,4.942-8.584,4.942-8.584L568.174,450.324z"/>
		<path fill-rule="evenodd" clip-rule="evenodd" fill="#8E6B56" d="M593.787,452.148c-11.625,15.178-29.781,49.229-34.623,66.784
			l34.104-39.669l-9.774-5.367l12.17,0.565c0.727,0.034,2.872-16.177,2.977-16.695C598.743,457.248,593.787,452.148,593.787,452.148
			z"/>
		<path fill-rule="evenodd" clip-rule="evenodd" fill="#FFFFFF" d="M572.561,444.007c0,0-2.309,2.659-2.877,3.022
			s-5.329,12.76-5.739,13.691c-0.41,0.935,7.87-7.779,8.336-7.986s1.225,0.127,1.225,0.127l-0.144-0.6L572.561,444.007z"/>
		<path fill-rule="evenodd" clip-rule="evenodd" fill="#E9695B" d="M562.933,408.4c3.308,0.339,5.813,3.472,5.596,7
			c-0.217,3.528-3.074,6.113-6.382,5.774c-3.307-0.337-5.813-3.472-5.595-7C556.768,410.647,559.626,408.062,562.933,408.4z"/>
		<path fill-rule="evenodd" clip-rule="evenodd" fill="#1A1A18" d="M559.682,400.995c-2.429,9.535,1.268,16.298,3.38,20.29
			c2.112,3.991,3.696-20.512,3.696-20.512L559.682,400.995z"/>
		<path fill-rule="evenodd" clip-rule="evenodd" fill="#E9695B" d="M603.713,411.061c3.213,0.339,4.838,3.473,3.631,7
			c-1.208,3.527-4.791,6.113-8.004,5.774c-3.212-0.339-4.838-3.473-3.63-7C596.917,413.308,600.501,410.722,603.713,411.061z"/>
		<path fill-rule="evenodd" clip-rule="evenodd" fill="#F5AC83" d="M584.065,378.057v0.001c10.754,3.762,21.17,12.102,19.166,23.976
			l-3.418,20.267c-2.156,12.779-13.772,21.41-26.066,20.354c-11.299-0.968-13.505-12.903-12.765-24.936l1.224-19.882
			C562.946,385.804,572.782,376.905,584.065,378.057z"/>
		<path fill-rule="evenodd" clip-rule="evenodd" fill="#EE9073" d="M592.324,380.835l0.043,0.025
			c6.901,4.171,11.408,12.338,10.865,21.173l-3.419,19.884c-2.723,15.831-18.572,24.68-28.585,19.382
			c5.93,1.346,10.489,0.438,13.996-1.282c8.919-4.369,11.036-16.083,11.574-24.821c1.105-17.976-16.111-5.741-34.994-9.057
			c-0.664-0.116,0.896-6.03,0.267-6.126l0.134-2.177c0.121-1.963,0.484-3.841,1.057-5.607c8.437-4.608,20.091-10.512,25.441-11.118
			c1.597-0.18,2.697-0.302,3.44-0.384l0.126,0.075C592.156,380.827,592.143,380.841,592.324,380.835z"/>
		<path fill-rule="evenodd" clip-rule="evenodd" fill="#362A25" d="M596.334,402.681c0,0-0.315,6.166-0.52,10.152
			c-0.203,3.985-0.225,4.9,1.254,6.541c0,0,1.088,5.67,2.771,6.789c0,0,0.201-10.097,2.076-14.264l0.199-16.655
			c-1.261,2.314-3.122,4.22-5.854,5.153C596.345,401.115,596.373,401.873,596.334,402.681z"/>
		<path fill-rule="evenodd" clip-rule="evenodd" fill="#362A25" d="M561.657,406.736c0,0-4.467-4.029-5.688-8.386
			c-1.026-3.665-4.195-21.642,0.468-19.768c10.465,4.206,43.859-14.351,45.841,8.897c0,0,1.521-1.531,2.744-1.008
			c1.225,0.521-0.618,3.26-0.618,3.26s4.086,3.376,4.611,5.911c0.365,1.753-2.171,9.294-4.571,14.745
			c-1.069,2.426-4.932,14.076-4.842,15.088l-1.326-22.869l-6.78-10.442l-20.204-2.2l-9.205,9.781L561.657,406.736z"/>
		<path fill-rule="evenodd" clip-rule="evenodd" fill="#362A25" d="M600.551,408.104c0,0-5.692-1.812-5.468-7.476
			c-1.93,3.007-6.541,3.225-3.921-1.478c0,0-12.991,9.042-29.914,4.93c0,0-3.039-16.67,0.279-18.184
			c3.317-1.512,26.564,1.156,28.973,2.327c2.408,1.173,15.024,8.812,15.024,8.812L600.551,408.104L600.551,408.104z M557.523,376.63
			c-0.131-0.135-0.131-0.358-0.002-0.494c0.129-0.136,0.34-0.136,0.47-0.001c0.014,0.014,4.836,5.234,13.924,3.775
			c0.182-0.029,0.352,0.103,0.379,0.292s-0.097,0.369-0.278,0.398C562.59,382.113,557.537,376.645,557.523,376.63L557.523,376.63z
			 M601.818,389.724c0.007-0.02,2.546-7.156-2.796-15.446c-0.104-0.159-0.31-0.2-0.462-0.093c-0.151,0.108-0.191,0.325-0.089,0.484
			c5.151,7.993,2.726,14.805,2.72,14.824c-0.061,0.182,0.029,0.381,0.203,0.445C601.567,390.002,601.757,389.905,601.818,389.724z"
			/>
		<path fill-rule="evenodd" clip-rule="evenodd" fill="#674834" d="M606.677,460.41c0,0,3.765,1.779,6.615,6.178
			c1.61,2.487,20.673,49.398,21.895,52.45c1.223,3.053,0.925,10.456-2.417,14.72c-1.358,1.732-10.748,14.206-15.034,19.513
			c-3.796,4.7-9.134,1.687-14.608,2.043c3.747-5.599,15.786-30.127,16.413-31.18c0.748-1.254,1.146-2.499-0.032-4.845
			c-1.18-2.344-13.696-24.498-13.696-24.498S598.636,468.2,606.677,460.41z"/>
		<path fill-rule="evenodd" clip-rule="evenodd" fill="#F5AC83" d="M505.525,519.473c-1.677-0.208-2.998-0.845-3.885-1.438
			c-1.281-0.858-3.125-2.764-6.492-3.832c-3.368-1.069-3.064,0.471-1.544,1.861c1.52,1.39,3.156,3.602,3.156,3.602
			s-6.472,1.899-9.211,2.44c-2.739,0.54-3.752,2.386-2.352,3.176c0.924,0.521,3.405-0.123,3.718-0.028
			c0.096,0.028-2.064,0.735-2.111,0.957c-0.138,0.649-0.14,1.317,0.919,1.73c1.06,0.412,2.668-0.283,2.668-0.283
			s-1.207,0.611-1.643,1.343c-0.249,0.418-0.036,0.988,0.269,1.219c0.837,0.635,4.088-0.025,4.088-0.025s-1.17,0.567-1.529,1.228
			c-0.308,0.565,0.152,1.232,0.515,1.304c0.481,0.095,2.464-0.239,4.72-0.708c2.555-0.53,6.633-1.605,8.995-2.858
			c1.719-0.912,2.788-1.628,3.895-1.699C510.195,527.427,511.417,520.202,505.525,519.473z"/>
		<path fill-rule="evenodd" clip-rule="evenodd" fill="#EE9073" d="M504.751,519.343c2.761,2.929,3.042,4.646,3.17,6.099
			c0.045,0.518-0.504,1.195-1.445,1.914c-2.025,1.547-5.865,3.285-9.503,4.039c-1.576,0.326-2.929,0.792-4.024,1.303
			c0.894-0.1,2.313-0.358,3.861-0.68c2.555-0.53,6.633-1.605,8.995-2.858c0.708-0.375,1.305-0.718,1.841-0.995
			c0.765-0.398,1.403-0.662,2.054-0.704c0.496-0.033,1.718-7.258-4.174-7.986C505.258,519.44,504.999,519.395,504.751,519.343z"/>
	</g>
	<g>
		<path fill-rule="evenodd" clip-rule="evenodd" fill="#E3B19B" d="M629.387,568.226c-0.235-3.528-3.286-6.198-6.814-5.963
			c-3.529,0.235-6.198,3.287-5.963,6.814c0.925,13.555,2.404,28.618,4.584,45.34h-116.25c2.301-16.624,4.134-31.605,5.583-45.088
			c0.374-3.516-2.173-6.668-5.688-7.041c-3.515-0.374-6.667,2.173-7.041,5.688c-2.86,26.628-7.227,59.096-13.734,98.539
			c-1.205,7.301-2.482,14.839-3.837,22.62h12.985c1.223-7.059,2.381-13.912,3.479-20.565c2.43-14.724,4.562-28.479,6.431-41.324
			h119.834c1.862,12.884,4.118,26.681,6.826,41.449c1.214,6.617,2.52,13.428,3.92,20.44h13.042
			c-1.578-7.83-3.037-15.409-4.383-22.745c-3.031-16.526-5.487-31.824-7.451-45.978c-0.021-0.316-0.064-0.625-0.128-0.927
			C632.151,600.371,630.42,583.354,629.387,568.226z"/>
		<g>
			<path fill-rule="evenodd" clip-rule="evenodd" fill="#E3B19B" d="M236.224,561.865h398.028c2.694,0,4.898,2.909,4.898,6.463l0,0
				c0,3.554-2.206,6.464-4.898,6.464h-401.24C233.781,570.373,234.859,566.055,236.224,561.865z"/>
			<path fill-rule="evenodd" clip-rule="evenodd" fill="#FFFFFF" d="M240.139,551.84H644.68c3.436,0,6.248,3.71,6.248,8.243v0.001
				c0,4.534-2.813,8.244-6.248,8.244H234.373C235.79,562.612,237.727,557.098,240.139,551.84z"/>
			<path fill-rule="evenodd" clip-rule="evenodd" fill="#F9EAE0" d="M551.984,551.839h13.001v16.489h-13.001V551.839
				L551.984,551.839z M626.034,551.839h7.271v16.489h-7.271V551.839L626.034,551.839z M600.528,551.839h14.543v16.489h-14.543
				V551.839L600.528,551.839z M585.585,551.839h3.376v16.489h-3.376V551.839L585.585,551.839z M571.74,551.839h6.753v16.489h-6.753
				V551.839z"/>
			<path fill-rule="evenodd" clip-rule="evenodd" fill="#F9EAE0" d="M238.96,554.516h112.832c2.043,0,3.714,2.205,3.714,4.901l0,0
				c0,2.694-1.672,4.9-3.714,4.9H235.462C236.451,560.97,237.618,557.699,238.96,554.516z"/>
		</g>
	</g>
	<g>
		<g>
			<path fill-rule="evenodd" clip-rule="evenodd" fill="#8E6B56" d="M309.961,504.657c0,0-6.705,10.648-7.362,16.17
				c-0.657,5.522,19.458,24.19,24.322,30.5c4.865,6.312-1.315,8.414-3.155,8.02s-35.102-26.557-37.205-30.369
				c-5.14-9.314,15.313-55.78,19.364-57.824C312.316,467.927,309.961,504.657,309.961,504.657z"/>
			<path fill-rule="evenodd" clip-rule="evenodd" fill="#1A1A18" d="M354.816,604.706l2.898,8.148c0,0-7.58,46.551-12.024,76.281
				h-24.063c-5.692-26.604-16.108-72.42-8.288-91.303C324.203,571.605,354.816,604.706,354.816,604.706z"/>
			<path fill-rule="evenodd" clip-rule="evenodd" fill="#302D28" d="M378.287,596.656l-1.211,7.785c0,0,1.662,56.176,2.351,84.694
				h-23.297c-8.121-24.722-25.811-73.194-19.783-94.126C344.24,567.601,378.287,596.656,378.287,596.656z"/>
			<path fill-rule="evenodd" clip-rule="evenodd" fill="#1A1A18" d="M374.674,689.135h-1.564c1.158-47.6-4.474-89.114-4.491-89.243
				c-0.056-0.428,0.246-0.82,0.674-0.877c0.428-0.055,0.82,0.246,0.876,0.674C370.187,599.819,375.831,641.428,374.674,689.135z"/>
			<path fill-rule="evenodd" clip-rule="evenodd" fill="#E9695B" d="M309.627,517.556c0,0,8.958,26.114,9.728,30.224
				c0.771,4.107-9.855,48.123-11.384,57.513c0,0-0.169,0.88,0.776,1.32c0,0,15.245-2.053,32.057-1.173s25.814,7.292,38.322,1.57
				c0,0,1.052-0.294,0.582-2.641c-0.471-2.349-9.552-44.192-9.277-55.93c0.112-4.752-0.03-12.583-0.231-20.454
				c-0.295-11.569,6.911-26.747,6.977-28.843c0.111-3.521-8.343-19.965-31.59-31.736
				C322.337,455.636,304.848,488.287,309.627,517.556z"/>
			<path fill-rule="evenodd" clip-rule="evenodd" fill="#D64C47" d="M309.627,517.556c0,0,0.605,1.764,1.513,4.443
				c0.376-0.504,0.816-0.928,1.306-1.111c1.66-0.623,6.102,0.54,13.615,0.084s16.436-5.189,21.002-12.909
				c4.566-7.721,17.101,11.539,17.433,12.535c0.333,0.996,2.408,8.053,2.242,14.361c-0.166,6.31,3.985,31.959,4.981,41.422
				s5.758,28.158,1.219,32.591c1.998-0.356,4.041-0.98,6.188-1.962c0,0,1.052-0.294,0.582-2.641
				c-0.471-2.349-9.552-44.192-9.276-55.93c0.111-4.752-0.031-12.583-0.232-20.454c-0.295-11.569,6.911-26.747,6.977-28.843
				c0.111-3.521-8.343-19.965-31.59-31.736C322.337,455.636,304.848,488.287,309.627,517.556L309.627,517.556z M319.259,547.332
				c1.063,0.762,2.373,1.576,3.399,1.822c2.075,0.499,11.705,0.415,10.459,1.494c-1.245,1.079-11.207,3.819-11.871,4.98
				c-0.664,1.163-1.162,11.623-0.589,33.354c0.212,8.022,2.542,13.108,5.398,16.335c-10.037,0.316-17.31,1.296-17.31,1.296
				c-0.945-0.44-0.775-1.32-0.775-1.32c1.528-9.39,12.154-53.405,11.383-57.513C319.331,547.651,319.299,547.503,319.259,547.332z"
				/>
			<path fill-rule="evenodd" clip-rule="evenodd" fill="#F5AC83" d="M362.087,406.142l3.041,9.052c0,0-1.93,30.351-5.173,34.945
				s-8.136,0.723-13.945-0.492c-5.81-1.217-5.54-10.403-5.945-13.105S343.713,409.114,362.087,406.142z"/>
			<path fill-rule="evenodd" clip-rule="evenodd" fill="#8E6B56" d="M342.833,476.443c11.489,22.312,34.856,59.618,39.876,64.616
				c2.331,2.321,4.268,3.862,6.633,5.202c2.727,1.546,6.023,2.825,11.146,4.726c9.563,3.549,29.571,9.84,32.021,9.608
				c2.45-0.23,3.16-5.472,2.329-6.943c-0.831-1.471-29.451-13.126-36.307-17.325s-18.996-40.574-23.918-51.313
				C362.07,457.652,331.344,454.132,342.833,476.443z"/>
			<path fill-rule="evenodd" clip-rule="evenodd" fill="#362A25" d="M364.231,420.507c14.065,0.419,12.73-25.28,3.932-31.717
				c-5.539-4.054-22.106,2.391-30.078,2.526c-7.971,0.135-30.854,1.662-29.233,38.14c0.592,13.332-1.521,23.126-4.694,31.257
				c-7.61,19.506-13.672,54.73,8.385,58.637c20.372,3.609,31.901-3.713,36.84-23.962c0,0,0.811-15.132,11.079-20.807
				c10.268-5.675,4.264-10.831-1.622-18.104c-5.886-7.274-10.539-10.944-9.188-20.94c1.351-9.999,10.472-3.535,14.189-14.984
				L364.231,420.507z"/>
			<path fill-rule="evenodd" clip-rule="evenodd" fill="#1A1A18" d="M364.231,420.507c7.926,0.235,10.961-7.823,10.526-16.054
				c-5.058,11.04-21.923,7.769-21.923,7.769c0.498,6.226-13.282,10.211-18.429,21.666c-5.147,11.456,8.428,42.556-4.815,66.078
				c-13.119,23.303-29.521,9.4-29.827,9.138c2.308,5.301,6.346,9.106,12.779,10.246c20.372,3.609,31.901-3.713,36.84-23.962
				c0,0,0.811-15.132,11.079-20.807c10.268-5.675,4.264-10.831-1.622-18.104c-5.886-7.274-10.539-10.944-9.188-20.94
				c1.351-9.999,10.472-3.535,14.189-14.984L364.231,420.507z"/>
			<path fill-rule="evenodd" clip-rule="evenodd" fill="#1A1A18" d="M348.084,435.519c-0.026-0.215,0.127-0.41,0.341-0.437
				c0.215-0.026,0.411,0.126,0.437,0.341c0.003,0.024,0.981,8.254,6.531,13.885c3.202,3.249,6.716,7.414,8.854,11.196
				c1.694,2.999,2.527,5.78,1.688,7.744c-0.084,0.198-0.314,0.291-0.513,0.206s-0.292-0.314-0.207-0.514
				c0.73-1.707-0.067-4.256-1.647-7.054c-2.097-3.712-5.566-7.819-8.731-11.03C349.095,444.033,348.087,435.543,348.084,435.519z"/>
			<path fill-rule="evenodd" clip-rule="evenodd" fill="#1A1A18" d="M373.572,401.994c-0.034-0.213,0.111-0.413,0.325-0.447
				c0.213-0.034,0.414,0.111,0.447,0.324c0.011,0.066,3.854,23.006-12.981,20.37c-0.213-0.032-0.359-0.232-0.326-0.445
				c0.033-0.214,0.233-0.36,0.446-0.327C377.245,423.938,373.582,402.057,373.572,401.994z"/>
		</g>
		<g>
			<path fill-rule="evenodd" clip-rule="evenodd" fill="#F5AC83" d="M492.518,599.507c2.25,4.64,8.679,16.216,6.182,22.513
				c-0.785,1.979-2.697,3.174-3.171,2.76c-0.383-0.335-0.088-1.827-0.088-1.827c-0.983,2.171-1.463,2.026-3.28,1.307
				c-0.53-0.21,0.502-1.356,0.655-2.335c0,0-0.249,1.847-1.727,2.168c-0.381,0.084-2.536-0.088-2.181-0.437
				c1.541-1.516,1.138-2.863,1.138-2.863c0.045,1.45-1.6,2.718-2.154,2.908c-1.308,0.446-4.234-3.415-2.912-3.973
				c0.579-0.244,2.697,1.709,2.164,0.614c-0.348-0.714-0.582-1.586-0.862-2.54c-0.973-3.311-0.954-2.622-1.587-4.653
				c-0.291-0.935,0.747-4.475,0.537-5.224c-1.007-3.6-2.464-10.431-2.464-10.431L492.518,599.507z"/>
			<path fill-rule="evenodd" clip-rule="evenodd" fill="#B56B41" d="M412.72,587.302l-4.605,17.995c0,0-4.368,41.986-8.698,83.838
				h33.549c6.705-29.25,12.174-53.209,13.562-58.851C450.617,613.672,450.613,588.521,412.72,587.302z"/>
			<path fill-rule="evenodd" clip-rule="evenodd" fill="#F5AC83" d="M456.058,395.756l3.578,10.229c0,0-0.954,28.346-4.569,33.605
				c-3.615,5.258-10.419,4.948-17.029,3.651c-6.61-1.299-6.049-9.616-6.547-12.678C430.993,427.504,435.247,399.387,456.058,395.756
				z"/>
			<path fill-rule="evenodd" clip-rule="evenodd" fill="#ED7862" d="M437.622,430.335l7.012,1.72c0,0-3.957,22.167-5.018,23.1
				c-1.063,0.934-22.652-2.557-23.603-5.076c-0.951-2.519,1.829-7.231,2.322-10.688c0.494-3.456,1.676-7.074,1.676-7.074
				L437.622,430.335z"/>
			<path fill-rule="evenodd" clip-rule="evenodd" fill="#FFFFFF" d="M440.716,451.709c0,0,1.207,0.771,1.298,1.96
				c0.061,0.785,0.307,2.93,0.465,4.29c0.081,0.694,0.139,1.185,0.139,1.185s-1.241,1.896-7.694,0.901
				c-6.453-0.994-18.53-4.142-19.462-5.051c-0.931-0.908,0.364-6.438,0.364-6.438S432.293,451.949,440.716,451.709z"/>
			<path fill-rule="evenodd" clip-rule="evenodd" fill="#FFFFFF" d="M398.568,470.867c0,0-5.252,5.438-8.092,13.831
				c-2.839,8.392-7.629,51.81-8.087,57.388c-0.458,5.577,26.851,41.141,27.602,41.849c0,0,0.277,0.554,1.452-0.121
				c1.175-0.676,5.109-4.235,4.886-5.986c-0.223-1.75-20.202-29.151-20.738-35.57c-0.535-6.418,18.217-44.425,18.827-51.862
				C415.028,482.959,405.52,466.497,398.568,470.867z"/>
			<path fill-rule="evenodd" clip-rule="evenodd" fill="#D58750" d="M473.299,599.972l6.818,5.432c0,0-1.284,38.937-2.887,83.731
				h-30.679c-1.533-18.558-2.933-32.997-3.903-37.794c-3.593-17.744-12.854-47.381-11.123-56.297
				C433.255,586.129,473.299,599.972,473.299,599.972z"/>
			<path fill-rule="evenodd" clip-rule="evenodd" fill="#B56B41" d="M473.299,599.972l1.035,0.823
				c-0.072,5.915-0.542,44.272-1.162,88.34h-2.089c0.673-47.808,1.169-88.912,1.172-89.176c0.001-0.112,0.02-0.22,0.055-0.321
				C472.948,599.85,473.299,599.972,473.299,599.972z"/>
			<path fill-rule="evenodd" clip-rule="evenodd" fill="#472E17" d="M442.48,458.094c0,0,19.714,6.092,21.44,9.238
				c1.726,3.146,7.611,32.693,8.057,68.802s8.782,65.467,9.175,72.43c0,0-0.21,1.509-0.974,1.835c0,0-5.732,1.497-23.067,0.998
				c-17.335-0.499-40.678-3.142-48.935-1.139c0,0-1.754,0.735-2.172-2.031c-0.417-2.768,8.755-48.497,8.521-67.501
				c-0.235-19.005-19.595-59.156-20.095-62.476c-0.5-3.32,13.774-19.445,20.734-24.056L442.48,458.094z"/>
			<path fill-rule="evenodd" clip-rule="evenodd" fill="#342000" d="M423.876,609.646c-6.736-0.246-12.414-0.185-15.7,0.611
				c0,0-1.754,0.735-2.172-2.031c-0.417-2.768,8.755-48.497,8.521-67.501c-0.235-19.005-19.595-59.156-20.095-62.476
				c-0.5-3.32,13.774-19.445,20.734-24.056l2.292,0.327c-3.393,2.951-10.738,9.555-12.948,13.279
				c-2.905,4.898,1.743,22.413,4.898,31.877c3.154,9.464,9.961,31.047,10.792,32.872c0.83,1.827,4.649,2.491,6.807,3.652
				c2.158,1.163-3.984,2.325-5.147,4.483C420.958,542.358,423.042,584.733,423.876,609.646z"/>
			<path fill-rule="evenodd" clip-rule="evenodd" fill="#FFFFFF" d="M464.177,467.117c1.535,1.732,3.863,5.332,5.642,12.36
				c2.902,11.465,8.472,52.65,12.382,71.312c3.911,18.661,12.553,47.844,12.571,49.377c0.019,1.534-1.185,3.39-2.404,3.941
				c-1.221,0.552-4.727,2.204-5.798,2.448c-1.07,0.243-2.452,0.106-3.075-0.652c-0.622-0.759-13.118-31.506-17.976-52.301
				c-3.635-15.564-12.172-47.959-15.273-64.418C447.776,476.082,458.092,460.248,464.177,467.117z"/>
			<path fill-rule="evenodd" clip-rule="evenodd" fill="#1A1A18" d="M459.636,405.986c0,0,4.11-1.589,6.111-4.327
				c2.001-2.738-2.104-20.626-4.548-23.803c-2.443-3.175-10.321,2.901-13.833,3.067c-3.512,0.166-31.59-18.125-33.834,10.835
				c0,0-0.604-1.441-2.209-1.606c-1.606-0.165-1.444,2.915,0.724,3.751c0,0-4.321,4.554-3.988,11.578
				c0.333,7.023,10.218,29.106,10.277,33.909c0,0,13.775,2.162,18.409,0.35c4.635-1.812,8.441-7.291,8.416-9.366
				c-0.026-2.077-0.03-2.447-0.039-3.125c-0.008-0.679-0.23-2-1.12-4.179c-0.89-2.177-1.922-4.991-0.716-6.351
				c1.206-1.36,5.154-1.194,5.964,4.499c0,0,0.091,0.461,0.384,0.458c0.292-0.003,0.35-0.344,0.344-0.86
				c-0.007-0.516-0.478-5.784-0.495-6.616c0,0,4.397-7.45,4.043-11.206C453.525,402.993,456.95,405.818,459.636,405.986z"/>
			<path fill-rule="evenodd" clip-rule="evenodd" fill="#362A25" d="M465.054,389.511c-1.082-5.076-2.665-10.11-3.854-11.655
				c-2.443-3.175-10.321,2.901-13.833,3.067c-3.512,0.166-31.589-18.125-33.834,10.836c0,0-0.604-1.442-2.209-1.607
				c-1.606-0.165-1.444,2.916,0.724,3.751c0,0-4.033,4.251-4.005,10.875c1.671,3,4.94,6.044,11.287,7.357
				c14.444,2.988,28.141-15.109,29.055-18.761c0,0,0.166-0.913,0.789-0.332C449.794,393.624,463.42,401.085,465.054,389.511z"/>
			<path fill-rule="evenodd" clip-rule="evenodd" fill="#1A1A18" d="M459.026,405.205c-0.184-0.055-0.378,0.051-0.432,0.235
				c-0.054,0.185,0.052,0.379,0.236,0.433c0.009,0.003,2.926,0.928,7.16-2.442c0.15-0.119,0.176-0.339,0.057-0.49
				c-0.12-0.15-0.339-0.175-0.49-0.056C461.61,406.027,459.033,405.206,459.026,405.205z"/>
			<path fill-rule="evenodd" clip-rule="evenodd" fill="#362A25" d="M413.714,392.892c0.063,0.182,0.263,0.276,0.445,0.213
				c0.182-0.064,0.277-0.264,0.213-0.445c-0.007-0.019-2.553-6.833,2.856-14.828c0.108-0.16,0.066-0.377-0.093-0.485
				c-0.16-0.107-0.377-0.066-0.485,0.092C411.04,385.733,413.707,392.871,413.714,392.892z"/>
			<path fill-rule="evenodd" clip-rule="evenodd" fill="#ED7862" d="M487.761,615.259c-0.577-3.554,0-7.011,0.96-7.011
				c0.764,0,4.02-1.945,6.044-4.19c-0.255-0.531-0.505-1.043-0.746-1.529c-0.45,0.714-1.049,1.306-1.652,1.579
				c-1.221,0.552-4.727,2.204-5.798,2.448c-0.53,0.12-1.137,0.147-1.69,0.053c0.121,0.47,0.239,0.914,0.353,1.316
				c0.209,0.749-0.828,4.289-0.537,5.224c0.633,2.031,0.614,1.343,1.587,4.653c0.28,0.954,0.515,1.826,0.862,2.54
				c0.534,1.095-1.585-0.858-2.164-0.614c-0.188,0.079-0.29,0.226-0.323,0.415c1.169,1.247,2.812,2.554,3.536,2.175
				C489.202,621.788,488.337,618.811,487.761,615.259z"/>
		</g>
	</g>
	<g>
		<path fill-rule="evenodd" clip-rule="evenodd" fill="#B56B41" d="M683.324,669.682h54.741c1.637,0,2.977,1.68,2.977,3.73v14.569
			h-60.694v-14.569C680.348,671.362,681.688,669.682,683.324,669.682z"/>
	</g>
	<path fill-rule="evenodd" clip-rule="evenodd" fill="#1A1A18" d="M864.945,695H255.516c-2.738,0-4.978-2.241-4.978-4.98l0,0
		c0-2.739,2.24-4.98,4.978-4.98h609.429c2.737,0,4.979,2.241,4.979,4.98l0,0C869.923,692.759,867.682,695,864.945,695z"/>
</g>
<path fill="#1C262D" d="M579.596,709.444c0.936-0.447,1.941-0.674,2.996-0.674c0.496,0,0.992,0.053,1.475,0.158l0.16-0.741
	c-0.535-0.116-1.084-0.175-1.635-0.175c-0.172,0-0.342,0.006-0.51,0.017l-0.074-0.626c0.188-0.149,0.297-0.389,0.266-0.645
	c-0.045-0.393-0.402-0.674-0.795-0.628s-0.674,0.402-0.627,0.796c0.029,0.254,0.189,0.461,0.404,0.563l0.072,0.624
	c-0.713,0.116-1.402,0.332-2.059,0.646L579.596,709.444z M589.047,709.362c-0.309,0.038-0.535,0.304-0.529,0.608l-0.416,0.363
	c-0.418-0.43-0.891-0.813-1.408-1.14l-0.404,0.642c1.135,0.715,2.021,1.727,2.564,2.925l0.689-0.313
	c-0.25-0.554-0.566-1.071-0.941-1.545l0.402-0.351c0.061,0.012,0.125,0.016,0.189,0.007c0.332-0.04,0.566-0.341,0.525-0.672
	C589.68,709.556,589.379,709.321,589.047,709.362z M628.832,709.441c-0.697,0-1.229,0.548-1.229,1.243
	c0,0.696,0.531,1.229,1.229,1.229c0.695,0,1.236-0.533,1.236-1.229C630.069,709.989,629.528,709.441,628.832,709.441z
	 M519.209,710.573c-0.396,0-0.732,0.337-0.732,0.747s0.337,0.732,0.732,0.732c0.41,0,0.747-0.322,0.747-0.732
	S519.619,710.573,519.209,710.573z"/>
</svg>
